<svg width="70" height="68" viewBox="0 0 70 68" fill="none" xmlns="http://www.w3.org/2000/svg">
<path d="M35 68C54.33 68 70 52.7777 70 34C70 15.2223 54.33 0 35 0C15.67 0 0 15.2223 0 34C0 52.7777 15.67 68 35 68Z" fill="#009247"/>
<path d="M33.2733 33.6614V39.3297C33.2733 48.5805 31.0021 50.4994 20.171 50.4994C10.4338 50.4994 6.78418 48.7474 6.78418 38.1617V30.9916C6.78418 20.5727 10.7575 18.7373 20.171 18.7373C27.5929 18.7373 33.4352 18.3643 33.2341 28.4053H27.431C27.431 23.8216 25.2383 23.8608 20.171 23.8608C13.3574 23.8608 12.705 24.9454 12.6265 30.9867V38.1567C12.7099 44.6986 13.6812 45.366 20.171 45.366C25.7288 45.366 27.431 45.2434 27.431 39.3248V38.2009H19.7639V33.6565H33.2733V33.6614Z" fill="white"/>
<path d="M63.5347 30.1622V38.5788C63.5347 48.5805 59.7625 50.4994 50.555 50.4994C41.3476 50.4994 37.698 48.8308 37.698 38.5788V30.1622C37.698 20.45 40.9012 18.7422 50.555 18.7422C59.3161 18.7422 63.5347 20.1163 63.5347 30.1622ZM43.5354 30.1622V38.5788C43.5354 44.7869 44.7127 45.3709 50.555 45.3709C55.8676 45.3709 57.6924 44.6201 57.6924 38.5788V30.1622C57.815 24.2878 55.7449 23.8707 50.555 23.8707C44.2663 23.8707 43.658 25.2055 43.5354 30.1622Z" fill="white"/>
</svg>
